<mxfile host="app.diagrams.net" agent="Mozilla/5.0 (Macintosh; Intel Mac OS X 10_15_7) AppleWebKit/537.36 (KHTML, like Gecko) Chrome/132.0.0.0 Safari/537.36" version="24.7.17">
  <diagram name="第 1 页" id="NnWqIRONzR28cQaHmhhL">
    <mxGraphModel dx="1359" dy="668" grid="1" gridSize="10" guides="1" tooltips="1" connect="1" arrows="1" fold="1" page="1" pageScale="1" pageWidth="827" pageHeight="1169" math="0" shadow="0">
      <root>
        <mxCell id="0" />
        <mxCell id="1" parent="0" />
        <mxCell id="DQ2HW3JdWLyfmWPZhTO2-5" value="" style="edgeStyle=orthogonalEdgeStyle;rounded=0;orthogonalLoop=1;jettySize=auto;html=1;" edge="1" parent="1" source="DQ2HW3JdWLyfmWPZhTO2-2" target="DQ2HW3JdWLyfmWPZhTO2-4">
          <mxGeometry relative="1" as="geometry" />
        </mxCell>
        <mxCell id="DQ2HW3JdWLyfmWPZhTO2-58" value="For each PDF" style="edgeLabel;html=1;align=center;verticalAlign=middle;resizable=0;points=[];" vertex="1" connectable="0" parent="DQ2HW3JdWLyfmWPZhTO2-5">
          <mxGeometry x="0.1" y="1" relative="1" as="geometry">
            <mxPoint x="-20" as="offset" />
          </mxGeometry>
        </mxCell>
        <mxCell id="DQ2HW3JdWLyfmWPZhTO2-2" value="PDF files" style="strokeWidth=2;html=1;shape=mxgraph.flowchart.multi-document;whiteSpace=wrap;" vertex="1" parent="1">
          <mxGeometry x="30" y="100" width="88" height="60" as="geometry" />
        </mxCell>
        <mxCell id="DQ2HW3JdWLyfmWPZhTO2-6" value="" style="edgeStyle=orthogonalEdgeStyle;rounded=0;orthogonalLoop=1;jettySize=auto;html=1;" edge="1" parent="1" source="DQ2HW3JdWLyfmWPZhTO2-3" target="DQ2HW3JdWLyfmWPZhTO2-4">
          <mxGeometry relative="1" as="geometry" />
        </mxCell>
        <mxCell id="DQ2HW3JdWLyfmWPZhTO2-3" value="Start" style="rounded=1;whiteSpace=wrap;html=1;" vertex="1" parent="1">
          <mxGeometry x="230" y="10" width="120" height="60" as="geometry" />
        </mxCell>
        <mxCell id="DQ2HW3JdWLyfmWPZhTO2-108" style="edgeStyle=orthogonalEdgeStyle;rounded=0;orthogonalLoop=1;jettySize=auto;html=1;exitX=0.5;exitY=1;exitDx=0;exitDy=0;entryX=0.5;entryY=0;entryDx=0;entryDy=0;" edge="1" parent="1" source="DQ2HW3JdWLyfmWPZhTO2-4" target="DQ2HW3JdWLyfmWPZhTO2-38">
          <mxGeometry relative="1" as="geometry" />
        </mxCell>
        <mxCell id="DQ2HW3JdWLyfmWPZhTO2-4" value="Read biblography section from a PDF" style="rounded=0;whiteSpace=wrap;html=1;" vertex="1" parent="1">
          <mxGeometry x="230" y="100" width="120" height="60" as="geometry" />
        </mxCell>
        <mxCell id="DQ2HW3JdWLyfmWPZhTO2-110" style="edgeStyle=orthogonalEdgeStyle;rounded=0;orthogonalLoop=1;jettySize=auto;html=1;entryX=1;entryY=0.75;entryDx=0;entryDy=0;exitX=0.088;exitY=0.651;exitDx=0;exitDy=0;exitPerimeter=0;" edge="1" parent="1" source="DQ2HW3JdWLyfmWPZhTO2-7" target="DQ2HW3JdWLyfmWPZhTO2-38">
          <mxGeometry relative="1" as="geometry" />
        </mxCell>
        <mxCell id="DQ2HW3JdWLyfmWPZhTO2-112" value="Structured References" style="edgeLabel;html=1;align=center;verticalAlign=middle;resizable=0;points=[];" vertex="1" connectable="0" parent="DQ2HW3JdWLyfmWPZhTO2-110">
          <mxGeometry x="-0.0854" relative="1" as="geometry">
            <mxPoint as="offset" />
          </mxGeometry>
        </mxCell>
        <mxCell id="DQ2HW3JdWLyfmWPZhTO2-7" value="&lt;div&gt;Large Language Model API&lt;/div&gt;(e.g., Google Gemini)" style="ellipse;shape=cloud;whiteSpace=wrap;html=1;align=center;" vertex="1" parent="1">
          <mxGeometry x="506" y="157" width="190" height="120" as="geometry" />
        </mxCell>
        <mxCell id="DQ2HW3JdWLyfmWPZhTO2-54" value="" style="edgeStyle=orthogonalEdgeStyle;rounded=0;orthogonalLoop=1;jettySize=auto;html=1;" edge="1" parent="1" source="DQ2HW3JdWLyfmWPZhTO2-38" target="DQ2HW3JdWLyfmWPZhTO2-53">
          <mxGeometry relative="1" as="geometry" />
        </mxCell>
        <mxCell id="DQ2HW3JdWLyfmWPZhTO2-57" value="For each reference" style="edgeLabel;html=1;align=center;verticalAlign=middle;resizable=0;points=[];" vertex="1" connectable="0" parent="DQ2HW3JdWLyfmWPZhTO2-54">
          <mxGeometry x="0.496" y="1" relative="1" as="geometry">
            <mxPoint as="offset" />
          </mxGeometry>
        </mxCell>
        <mxCell id="DQ2HW3JdWLyfmWPZhTO2-38" value="Reference Parsing" style="rounded=0;whiteSpace=wrap;html=1;" vertex="1" parent="1">
          <mxGeometry x="230" y="190" width="120" height="60" as="geometry" />
        </mxCell>
        <mxCell id="DQ2HW3JdWLyfmWPZhTO2-69" style="edgeStyle=orthogonalEdgeStyle;rounded=0;orthogonalLoop=1;jettySize=auto;html=1;entryX=0.75;entryY=0;entryDx=0;entryDy=0;" edge="1" parent="1" source="DQ2HW3JdWLyfmWPZhTO2-45" target="DQ2HW3JdWLyfmWPZhTO2-65">
          <mxGeometry relative="1" as="geometry">
            <mxPoint x="596" y="600" as="targetPoint" />
            <Array as="points">
              <mxPoint x="526" y="440" />
            </Array>
          </mxGeometry>
        </mxCell>
        <mxCell id="DQ2HW3JdWLyfmWPZhTO2-45" value="Match with&amp;nbsp;&lt;div&gt;Corssref?&lt;/div&gt;" style="shape=rhombus;perimeter=rhombusPerimeter;whiteSpace=wrap;html=1;align=center;" vertex="1" parent="1">
          <mxGeometry x="386" y="410" width="120" height="60" as="geometry" />
        </mxCell>
        <mxCell id="DQ2HW3JdWLyfmWPZhTO2-70" style="edgeStyle=orthogonalEdgeStyle;rounded=0;orthogonalLoop=1;jettySize=auto;html=1;entryX=0.75;entryY=0;entryDx=0;entryDy=0;" edge="1" parent="1" source="DQ2HW3JdWLyfmWPZhTO2-46" target="DQ2HW3JdWLyfmWPZhTO2-65">
          <mxGeometry relative="1" as="geometry">
            <Array as="points">
              <mxPoint x="526" y="530" />
            </Array>
          </mxGeometry>
        </mxCell>
        <mxCell id="DQ2HW3JdWLyfmWPZhTO2-73" style="edgeStyle=orthogonalEdgeStyle;rounded=0;orthogonalLoop=1;jettySize=auto;html=1;entryX=0.5;entryY=0;entryDx=0;entryDy=0;" edge="1" parent="1" source="DQ2HW3JdWLyfmWPZhTO2-46" target="DQ2HW3JdWLyfmWPZhTO2-72">
          <mxGeometry relative="1" as="geometry">
            <Array as="points">
              <mxPoint x="446" y="580" />
              <mxPoint x="336" y="580" />
            </Array>
          </mxGeometry>
        </mxCell>
        <mxCell id="DQ2HW3JdWLyfmWPZhTO2-74" value="No" style="edgeLabel;html=1;align=center;verticalAlign=middle;resizable=0;points=[];" vertex="1" connectable="0" parent="DQ2HW3JdWLyfmWPZhTO2-73">
          <mxGeometry x="-0.335" relative="1" as="geometry">
            <mxPoint x="35" y="-10" as="offset" />
          </mxGeometry>
        </mxCell>
        <mxCell id="DQ2HW3JdWLyfmWPZhTO2-46" value="Match with&amp;nbsp;&lt;div&gt;Google Scholar?&lt;/div&gt;" style="shape=rhombus;perimeter=rhombusPerimeter;whiteSpace=wrap;html=1;align=center;" vertex="1" parent="1">
          <mxGeometry x="386" y="500" width="120" height="60" as="geometry" />
        </mxCell>
        <mxCell id="DQ2HW3JdWLyfmWPZhTO2-59" value="" style="edgeStyle=orthogonalEdgeStyle;rounded=0;orthogonalLoop=1;jettySize=auto;html=1;" edge="1" parent="1" source="DQ2HW3JdWLyfmWPZhTO2-47" target="DQ2HW3JdWLyfmWPZhTO2-45">
          <mxGeometry relative="1" as="geometry" />
        </mxCell>
        <mxCell id="DQ2HW3JdWLyfmWPZhTO2-47" value="&lt;div&gt;&lt;br&gt;&lt;/div&gt;Crossref API Search" style="strokeWidth=2;html=1;shape=mxgraph.flowchart.database;whiteSpace=wrap;" vertex="1" parent="1">
          <mxGeometry x="236" y="410" width="110" height="60" as="geometry" />
        </mxCell>
        <mxCell id="DQ2HW3JdWLyfmWPZhTO2-64" value="" style="edgeStyle=orthogonalEdgeStyle;rounded=0;orthogonalLoop=1;jettySize=auto;html=1;" edge="1" parent="1" source="DQ2HW3JdWLyfmWPZhTO2-52" target="DQ2HW3JdWLyfmWPZhTO2-46">
          <mxGeometry relative="1" as="geometry" />
        </mxCell>
        <mxCell id="DQ2HW3JdWLyfmWPZhTO2-52" value="&lt;div&gt;&lt;br&gt;&lt;/div&gt;Google Scholar API Search" style="strokeWidth=2;html=1;shape=mxgraph.flowchart.database;whiteSpace=wrap;" vertex="1" parent="1">
          <mxGeometry x="236" y="500" width="110" height="60" as="geometry" />
        </mxCell>
        <mxCell id="DQ2HW3JdWLyfmWPZhTO2-76" value="" style="edgeStyle=orthogonalEdgeStyle;rounded=0;orthogonalLoop=1;jettySize=auto;html=1;" edge="1" parent="1" source="DQ2HW3JdWLyfmWPZhTO2-53" target="DQ2HW3JdWLyfmWPZhTO2-47">
          <mxGeometry relative="1" as="geometry" />
        </mxCell>
        <mxCell id="DQ2HW3JdWLyfmWPZhTO2-77" value="Academic Reference" style="edgeLabel;html=1;align=center;verticalAlign=middle;resizable=0;points=[];" vertex="1" connectable="0" parent="DQ2HW3JdWLyfmWPZhTO2-76">
          <mxGeometry x="-0.2381" y="1" relative="1" as="geometry">
            <mxPoint as="offset" />
          </mxGeometry>
        </mxCell>
        <mxCell id="DQ2HW3JdWLyfmWPZhTO2-88" value="Website" style="edgeStyle=orthogonalEdgeStyle;rounded=0;orthogonalLoop=1;jettySize=auto;html=1;entryX=0.064;entryY=0.495;entryDx=0;entryDy=0;entryPerimeter=0;" edge="1" parent="1" source="DQ2HW3JdWLyfmWPZhTO2-53" target="DQ2HW3JdWLyfmWPZhTO2-78">
          <mxGeometry x="-0.1942" y="11" relative="1" as="geometry">
            <mxPoint x="1" as="offset" />
          </mxGeometry>
        </mxCell>
        <mxCell id="DQ2HW3JdWLyfmWPZhTO2-53" value="Check Reference&amp;nbsp;&lt;div&gt;Type&lt;/div&gt;" style="shape=rhombus;perimeter=rhombusPerimeter;whiteSpace=wrap;html=1;align=center;" vertex="1" parent="1">
          <mxGeometry x="225" y="280" width="130" height="82" as="geometry" />
        </mxCell>
        <mxCell id="DQ2HW3JdWLyfmWPZhTO2-60" style="edgeStyle=orthogonalEdgeStyle;rounded=0;orthogonalLoop=1;jettySize=auto;html=1;entryX=0.5;entryY=0;entryDx=0;entryDy=0;entryPerimeter=0;" edge="1" parent="1" source="DQ2HW3JdWLyfmWPZhTO2-45" target="DQ2HW3JdWLyfmWPZhTO2-52">
          <mxGeometry relative="1" as="geometry">
            <Array as="points">
              <mxPoint x="446" y="480" />
              <mxPoint x="291" y="480" />
            </Array>
          </mxGeometry>
        </mxCell>
        <mxCell id="DQ2HW3JdWLyfmWPZhTO2-61" value="No" style="edgeLabel;html=1;align=center;verticalAlign=middle;resizable=0;points=[];" vertex="1" connectable="0" parent="DQ2HW3JdWLyfmWPZhTO2-60">
          <mxGeometry x="-0.5092" y="-1" relative="1" as="geometry">
            <mxPoint as="offset" />
          </mxGeometry>
        </mxCell>
        <mxCell id="DQ2HW3JdWLyfmWPZhTO2-103" style="edgeStyle=orthogonalEdgeStyle;rounded=0;orthogonalLoop=1;jettySize=auto;html=1;entryX=0.5;entryY=0;entryDx=0;entryDy=0;" edge="1" parent="1" source="DQ2HW3JdWLyfmWPZhTO2-65" target="DQ2HW3JdWLyfmWPZhTO2-91">
          <mxGeometry relative="1" as="geometry">
            <Array as="points">
              <mxPoint x="496" y="690" />
              <mxPoint x="400" y="690" />
            </Array>
          </mxGeometry>
        </mxCell>
        <mxCell id="DQ2HW3JdWLyfmWPZhTO2-65" value="Mark Reference as Verified ✅" style="rounded=0;whiteSpace=wrap;html=1;" vertex="1" parent="1">
          <mxGeometry x="436" y="615" width="120" height="60" as="geometry" />
        </mxCell>
        <mxCell id="DQ2HW3JdWLyfmWPZhTO2-102" style="edgeStyle=orthogonalEdgeStyle;rounded=0;orthogonalLoop=1;jettySize=auto;html=1;entryX=0.5;entryY=0;entryDx=0;entryDy=0;exitX=0.5;exitY=1;exitDx=0;exitDy=0;" edge="1" parent="1" source="DQ2HW3JdWLyfmWPZhTO2-72" target="DQ2HW3JdWLyfmWPZhTO2-91">
          <mxGeometry relative="1" as="geometry">
            <Array as="points">
              <mxPoint x="336" y="690" />
              <mxPoint x="400" y="690" />
            </Array>
          </mxGeometry>
        </mxCell>
        <mxCell id="DQ2HW3JdWLyfmWPZhTO2-72" value="Mark Reference as Warning ⚠️" style="rounded=0;whiteSpace=wrap;html=1;" vertex="1" parent="1">
          <mxGeometry x="276" y="615" width="120" height="60" as="geometry" />
        </mxCell>
        <mxCell id="DQ2HW3JdWLyfmWPZhTO2-87" value="" style="edgeStyle=orthogonalEdgeStyle;rounded=0;orthogonalLoop=1;jettySize=auto;html=1;entryX=0.5;entryY=0;entryDx=0;entryDy=0;exitX=0.55;exitY=0.95;exitDx=0;exitDy=0;exitPerimeter=0;" edge="1" parent="1" source="DQ2HW3JdWLyfmWPZhTO2-78" target="DQ2HW3JdWLyfmWPZhTO2-84">
          <mxGeometry relative="1" as="geometry">
            <Array as="points">
              <mxPoint x="506" y="397" />
              <mxPoint x="616" y="397" />
            </Array>
          </mxGeometry>
        </mxCell>
        <mxCell id="DQ2HW3JdWLyfmWPZhTO2-114" value="" style="edgeStyle=orthogonalEdgeStyle;rounded=0;orthogonalLoop=1;jettySize=auto;html=1;" edge="1" parent="1" source="DQ2HW3JdWLyfmWPZhTO2-78" target="DQ2HW3JdWLyfmWPZhTO2-81">
          <mxGeometry relative="1" as="geometry" />
        </mxCell>
        <mxCell id="DQ2HW3JdWLyfmWPZhTO2-78" value="&lt;div&gt;Large Language Model API&lt;/div&gt;&lt;div&gt;with Web Search&lt;/div&gt;(e.g., Google Gemini)" style="ellipse;shape=cloud;whiteSpace=wrap;html=1;align=center;" vertex="1" parent="1">
          <mxGeometry x="401" y="268" width="190" height="106" as="geometry" />
        </mxCell>
        <mxCell id="DQ2HW3JdWLyfmWPZhTO2-115" value="" style="edgeStyle=orthogonalEdgeStyle;rounded=0;orthogonalLoop=1;jettySize=auto;html=1;" edge="1" parent="1" source="DQ2HW3JdWLyfmWPZhTO2-81" target="DQ2HW3JdWLyfmWPZhTO2-78">
          <mxGeometry relative="1" as="geometry" />
        </mxCell>
        <mxCell id="DQ2HW3JdWLyfmWPZhTO2-81" value="&lt;div&gt;Web Search&lt;/div&gt;&lt;div&gt;(e.g., Google Search)&lt;/div&gt;" style="ellipse;shape=cloud;whiteSpace=wrap;html=1;align=center;" vertex="1" parent="1">
          <mxGeometry x="620" y="268" width="190" height="106.5" as="geometry" />
        </mxCell>
        <mxCell id="DQ2HW3JdWLyfmWPZhTO2-85" style="edgeStyle=orthogonalEdgeStyle;rounded=0;orthogonalLoop=1;jettySize=auto;html=1;entryX=0.75;entryY=0;entryDx=0;entryDy=0;" edge="1" parent="1" source="DQ2HW3JdWLyfmWPZhTO2-84" target="DQ2HW3JdWLyfmWPZhTO2-65">
          <mxGeometry relative="1" as="geometry">
            <Array as="points">
              <mxPoint x="616" y="530" />
              <mxPoint x="526" y="530" />
            </Array>
          </mxGeometry>
        </mxCell>
        <mxCell id="DQ2HW3JdWLyfmWPZhTO2-116" value="Yes" style="edgeLabel;html=1;align=center;verticalAlign=middle;resizable=0;points=[];" vertex="1" connectable="0" parent="DQ2HW3JdWLyfmWPZhTO2-85">
          <mxGeometry x="-0.671" y="1" relative="1" as="geometry">
            <mxPoint x="-91" y="41" as="offset" />
          </mxGeometry>
        </mxCell>
        <mxCell id="DQ2HW3JdWLyfmWPZhTO2-86" style="edgeStyle=orthogonalEdgeStyle;rounded=0;orthogonalLoop=1;jettySize=auto;html=1;exitX=1;exitY=0.5;exitDx=0;exitDy=0;entryX=0.5;entryY=0;entryDx=0;entryDy=0;" edge="1" parent="1" source="DQ2HW3JdWLyfmWPZhTO2-84" target="DQ2HW3JdWLyfmWPZhTO2-72">
          <mxGeometry relative="1" as="geometry">
            <mxPoint x="336" y="610" as="targetPoint" />
            <Array as="points">
              <mxPoint x="690" y="440" />
              <mxPoint x="690" y="580" />
              <mxPoint x="336" y="580" />
            </Array>
          </mxGeometry>
        </mxCell>
        <mxCell id="DQ2HW3JdWLyfmWPZhTO2-89" value="No" style="edgeLabel;html=1;align=center;verticalAlign=middle;resizable=0;points=[];" vertex="1" connectable="0" parent="DQ2HW3JdWLyfmWPZhTO2-86">
          <mxGeometry x="-0.4175" y="2" relative="1" as="geometry">
            <mxPoint x="6" y="-32" as="offset" />
          </mxGeometry>
        </mxCell>
        <mxCell id="DQ2HW3JdWLyfmWPZhTO2-84" value="Match with&lt;div&gt;Web Search?&lt;/div&gt;" style="shape=rhombus;perimeter=rhombusPerimeter;whiteSpace=wrap;html=1;align=center;" vertex="1" parent="1">
          <mxGeometry x="556" y="410" width="120" height="60" as="geometry" />
        </mxCell>
        <mxCell id="DQ2HW3JdWLyfmWPZhTO2-92" style="edgeStyle=orthogonalEdgeStyle;rounded=0;orthogonalLoop=1;jettySize=auto;html=1;entryX=0;entryY=0.5;entryDx=0;entryDy=0;" edge="1" parent="1" source="DQ2HW3JdWLyfmWPZhTO2-91" target="DQ2HW3JdWLyfmWPZhTO2-53">
          <mxGeometry relative="1" as="geometry">
            <Array as="points">
              <mxPoint x="205" y="740" />
              <mxPoint x="205" y="321" />
            </Array>
          </mxGeometry>
        </mxCell>
        <mxCell id="DQ2HW3JdWLyfmWPZhTO2-96" value="No" style="edgeLabel;html=1;align=center;verticalAlign=middle;resizable=0;points=[];" vertex="1" connectable="0" parent="DQ2HW3JdWLyfmWPZhTO2-92">
          <mxGeometry x="-0.6683" y="-1" relative="1" as="geometry">
            <mxPoint as="offset" />
          </mxGeometry>
        </mxCell>
        <mxCell id="DQ2HW3JdWLyfmWPZhTO2-94" value="Yes" style="edgeStyle=orthogonalEdgeStyle;rounded=0;orthogonalLoop=1;jettySize=auto;html=1;" edge="1" parent="1" source="DQ2HW3JdWLyfmWPZhTO2-91" target="DQ2HW3JdWLyfmWPZhTO2-93">
          <mxGeometry relative="1" as="geometry">
            <Array as="points">
              <mxPoint x="400" y="780" />
              <mxPoint x="296" y="780" />
            </Array>
          </mxGeometry>
        </mxCell>
        <mxCell id="DQ2HW3JdWLyfmWPZhTO2-91" value="Is this the last refernece&amp;nbsp;&lt;div&gt;in the PDF?&lt;/div&gt;" style="shape=rhombus;perimeter=rhombusPerimeter;whiteSpace=wrap;html=1;align=center;" vertex="1" parent="1">
          <mxGeometry x="300" y="710" width="200" height="60" as="geometry" />
        </mxCell>
        <mxCell id="DQ2HW3JdWLyfmWPZhTO2-95" style="edgeStyle=orthogonalEdgeStyle;rounded=0;orthogonalLoop=1;jettySize=auto;html=1;entryX=0;entryY=0.75;entryDx=0;entryDy=0;" edge="1" parent="1" source="DQ2HW3JdWLyfmWPZhTO2-93" target="DQ2HW3JdWLyfmWPZhTO2-4">
          <mxGeometry relative="1" as="geometry">
            <Array as="points">
              <mxPoint x="170" y="830" />
              <mxPoint x="170" y="145" />
            </Array>
          </mxGeometry>
        </mxCell>
        <mxCell id="DQ2HW3JdWLyfmWPZhTO2-97" value="No" style="edgeLabel;html=1;align=center;verticalAlign=middle;resizable=0;points=[];" vertex="1" connectable="0" parent="DQ2HW3JdWLyfmWPZhTO2-95">
          <mxGeometry x="-0.5039" y="-1" relative="1" as="geometry">
            <mxPoint as="offset" />
          </mxGeometry>
        </mxCell>
        <mxCell id="DQ2HW3JdWLyfmWPZhTO2-100" value="" style="edgeStyle=orthogonalEdgeStyle;rounded=0;orthogonalLoop=1;jettySize=auto;html=1;" edge="1" parent="1" source="DQ2HW3JdWLyfmWPZhTO2-93" target="DQ2HW3JdWLyfmWPZhTO2-99">
          <mxGeometry relative="1" as="geometry" />
        </mxCell>
        <mxCell id="DQ2HW3JdWLyfmWPZhTO2-117" value="Yes" style="edgeLabel;html=1;align=center;verticalAlign=middle;resizable=0;points=[];" vertex="1" connectable="0" parent="DQ2HW3JdWLyfmWPZhTO2-100">
          <mxGeometry x="-0.0507" y="2" relative="1" as="geometry">
            <mxPoint as="offset" />
          </mxGeometry>
        </mxCell>
        <mxCell id="DQ2HW3JdWLyfmWPZhTO2-93" value="Is this the last PDF?" style="shape=rhombus;perimeter=rhombusPerimeter;whiteSpace=wrap;html=1;align=center;" vertex="1" parent="1">
          <mxGeometry x="236" y="800" width="120" height="60" as="geometry" />
        </mxCell>
        <mxCell id="DQ2HW3JdWLyfmWPZhTO2-98" value="End" style="rounded=1;whiteSpace=wrap;html=1;" vertex="1" parent="1">
          <mxGeometry x="570" y="800" width="120" height="60" as="geometry" />
        </mxCell>
        <mxCell id="DQ2HW3JdWLyfmWPZhTO2-101" value="" style="edgeStyle=orthogonalEdgeStyle;rounded=0;orthogonalLoop=1;jettySize=auto;html=1;" edge="1" parent="1" source="DQ2HW3JdWLyfmWPZhTO2-99" target="DQ2HW3JdWLyfmWPZhTO2-98">
          <mxGeometry relative="1" as="geometry" />
        </mxCell>
        <mxCell id="DQ2HW3JdWLyfmWPZhTO2-99" value="Output results" style="rounded=0;whiteSpace=wrap;html=1;" vertex="1" parent="1">
          <mxGeometry x="410" y="800" width="120" height="60" as="geometry" />
        </mxCell>
        <mxCell id="DQ2HW3JdWLyfmWPZhTO2-109" value="" style="endArrow=classic;html=1;rounded=0;exitX=1;exitY=0.25;exitDx=0;exitDy=0;entryX=0.07;entryY=0.4;entryDx=0;entryDy=0;entryPerimeter=0;" edge="1" parent="1" source="DQ2HW3JdWLyfmWPZhTO2-38" target="DQ2HW3JdWLyfmWPZhTO2-7">
          <mxGeometry width="50" height="50" relative="1" as="geometry">
            <mxPoint x="380" y="150" as="sourcePoint" />
            <mxPoint x="430" y="100" as="targetPoint" />
          </mxGeometry>
        </mxCell>
        <mxCell id="DQ2HW3JdWLyfmWPZhTO2-111" value="Messy bibliography text" style="edgeLabel;html=1;align=center;verticalAlign=middle;resizable=0;points=[];" vertex="1" connectable="0" parent="DQ2HW3JdWLyfmWPZhTO2-109">
          <mxGeometry x="-0.1787" relative="1" as="geometry">
            <mxPoint x="17" as="offset" />
          </mxGeometry>
        </mxCell>
      </root>
    </mxGraphModel>
  </diagram>
</mxfile>
